<svg xmlns="http://www.w3.org/2000/svg" viewBox="0 0 261.88 282.45"><defs><style>.cls-1{fill:#fff;}</style></defs><title>keybaselogoAsset 1</title><g id="Layer_2" data-name="Layer 2"><g id="Layer_1-2" data-name="Layer 1"><g id="GYG2Ja.tif"><path d="M248.09,282.16l-18.69-.06c11.74-20.89,16.07-43.52,15.65-67.23-.07-4-.7-8-1.13-11.93,0-.43-.47-.82-.92-1.56-2.26,2.39-4.22,4.83-6.55,6.86-12.93,11.25-28,13.3-44,9.26s-32.33-7.84-49.11-8.23c-31.26-.72-59.37,8.32-84.47,26.9-5.48,4.06-11.1,7.93-16.67,11.86-.22.15-.65,0-1.37,0,3.28-10.44,6.52-20.8,9.77-31.17l-1.41-.79c-6.44,6.86-12.9,13.69-19.29,20.59-1,1.12-.33,2.53-.06,3.83a107.31,107.31,0,0,0,15.51,37.07c1,1.52,1.86,3.11,2.79,4.67l-19,.2a97.32,97.32,0,0,1-12.12-26.14c-1-3.28-1.92-4.29-4.61-1.18A68.89,68.89,0,0,1,0,266.56V249.34c.16-17.63,0-35.3,3.61-52.67,9.06-43.4,34.48-74.08,73.73-93.68,3.9-1.95,4.65-3.48,3-7.4a36.27,36.27,0,0,1-3-16.58c.29-4.71-1.55-6.32-5.95-5.92a15.78,15.78,0,0,1-3-.2C52.5,71.27,45.69,64.07,45,48.16c.4-5.64.6-11.31,1.23-16.93,1.09-9.68,9-17.87,18.59-18.81,8.31-.82,16.63.22,24.88,1.4a12.6,12.6,0,0,1,7.19,3.27c3.24,3.27,4.79,1.48,6.68-1.42,2.82-4.32,5.94-8.45,9-12.61,1-1.29,1.58-3.05,3.64-3.06,3.38,2.07,6.67,4.31,10.17,6.15,2.48,1.3,2.75,2.7,1.61,5.1s-2,5.24-2.92,7.87c-.39,1.26-.88,2.49-1.16,3.77-1.38,6.37-1.1,6.73,5.38,7.29,27.7,2.39,48.2,23.9,47.85,50.2a34.52,34.52,0,0,1-1.95,12.28c-1.7,4.27-.49,5.9,3.67,7.57,37.94,15.23,63.75,42.39,76.65,81.06,10.61,31.8,7.2,63.38-4.54,94.34-.59,1.55-1.11,3.12-1.66,4.68Z"/><path d="M112.35,251.94a11.06,11.06,0,0,1-11.12,11,11.18,11.18,0,1,1,.36-22.36A11.06,11.06,0,0,1,112.35,251.94Z"/><path d="M182.24,251.66a11.23,11.23,0,0,1-10.9,11.28,11.18,11.18,0,1,1-.2-22.36A11.21,11.21,0,0,1,182.24,251.66Z"/><path class="cls-1" d="M169.05,151.86a3.71,3.71,0,0,1-1.93,3.63,3,3,0,0,1-4.06-.74c-3.18-4.7-6.06-3-9.12.06-1.3,1.28-2.83,2.33-4.25,3.48-4.76,3.82-5.14,3.78-9.14-1-5.11-6.12-5.11-6.12,1.19-11.27,1.41-1.16,2.85-2.31,4.22-3.51,1.86-1.64,4.82-2.59,2-6.18-2.57-3.22-4.45-2.57-6.79-.2-.24.23-.53.41-.78.62-2.06,1.77-4.1,2.23-6-.18-1.78-2.25-1-4.25,1.12-5.48,4.91-2.86,4-5.72.67-9.22a118.72,118.72,0,0,1-7.6-9.26c-1.46-1.86-2.18-4,0-5.74s4.14-.71,5.67,1.18q16.88,20.71,33.67,41.49A11.25,11.25,0,0,1,169.05,151.86Z"/><path class="cls-1" d="M75.6,29.09a85.12,85.12,0,0,1,8.91.67c4.76.84,6.43,4,4.53,8.37C86.68,43.6,84.12,49,81.61,54.4c-.34.73-.83,1.88-1.36,2-5.26.67-10.66.71-15.59-1.16-4.07-1.54-3.18-5.63-2.86-9.14.27-3,.31-5.95.47-8.93.38-7,2.39-8.72,9.35-8.18,1.32.1,2.65.18,4,.27Z"/><path d="M75.73,38.14c2.14.35,5.67-.82,4.93,3.38-.43,2.44,1.38,6.9-3.81,6.32-2.34-.26-6.34,1.17-6-3.73C71.12,41.07,70.42,37.2,75.73,38.14Z"/></g></g></g></svg>